<svg width="14" height="13" viewBox="0 0 14 13" fill="none" xmlns="http://www.w3.org/2000/svg">
<path fill-rule="evenodd" clip-rule="evenodd" d="M6.92098 1.44649C7.67537 0.560599 8.83117 0 10.0354 0C12.1671 0 13.842 1.67488 13.842 3.80654C13.842 6.42053 11.4927 8.5508 7.93331 11.7785L7.92452 11.7864L6.92098 12.7L5.91744 11.7934L5.8901 11.7685C2.34111 8.5434 0 6.41596 0 3.80654C0 1.67488 1.67488 0 3.80654 0C5.01079 0 6.16659 0.560599 6.92098 1.44649ZM6.92098 10.8313L6.99019 10.7621C10.2846 7.77918 12.4578 5.8067 12.4578 3.80654C12.4578 2.42234 11.4196 1.3842 10.0354 1.3842C8.96959 1.3842 7.93144 2.06937 7.57155 3.01755H6.27733C5.91052 2.06937 4.87237 1.3842 3.80654 1.3842C2.42234 1.3842 1.3842 2.42234 1.3842 3.80654C1.3842 5.8067 3.55738 7.77918 6.85177 10.7621L6.92098 10.8313Z" fill="#333333" fill-opacity="0.77"/>
</svg>
