<svg width="45" height="45" viewBox="0 0 45 45" fill="none" xmlns="http://www.w3.org/2000/svg">
<path fill-rule="evenodd" clip-rule="evenodd" d="M14.535 7.965L18.5175 11.925L22.5 7.965L26.4825 11.925L30.465 7.965L22.5 0L14.535 7.965ZM7.965 14.535L0 22.5L7.965 30.465L11.925 26.4825L7.965 22.5L11.925 18.5175L7.965 14.535ZM22.5 37.035L18.5175 33.075L14.535 37.035L22.5 45L30.465 37.035L26.4825 33.075L22.5 37.035ZM33.075 18.5175L37.035 14.535L45 22.5L37.035 30.465L33.075 26.4825L37.035 22.5L33.075 18.5175ZM15.75 22.5C15.75 18.772 18.772 15.75 22.5 15.75C26.228 15.75 29.25 18.772 29.25 22.5C29.25 26.228 26.228 29.25 22.5 29.25C18.772 29.25 15.75 26.228 15.75 22.5Z" fill="white"/>
</svg>
