<svg width="297" height="93" viewBox="0 0 297 93" fill="none" xmlns="http://www.w3.org/2000/svg">
<path d="M115.174 64V28.4531H127.625C131.938 28.4531 135.21 29.2832 137.439 30.9434C139.669 32.5872 140.784 35.0042 140.784 38.1943C140.784 39.9359 140.337 41.474 139.441 42.8086C138.546 44.127 137.301 45.0954 135.706 45.7139C137.529 46.1696 138.961 47.0892 140.003 48.4727C141.061 49.8561 141.59 51.5488 141.59 53.5508C141.59 56.9688 140.499 59.5566 138.318 61.3145C136.137 63.0723 133.029 63.9674 128.992 64H115.174ZM122.498 48.5215V58.1162H128.772C130.498 58.1162 131.84 57.7093 132.801 56.8955C133.777 56.0654 134.266 54.9261 134.266 53.4775C134.266 50.2223 132.581 48.5703 129.212 48.5215H122.498ZM122.498 43.3457H127.918C131.613 43.2806 133.46 41.8076 133.46 38.9268C133.46 37.3154 132.988 36.1598 132.044 35.46C131.116 34.7438 129.643 34.3857 127.625 34.3857H122.498V43.3457ZM161.487 44.2002C160.527 44.07 159.681 44.0049 158.948 44.0049C156.279 44.0049 154.529 44.9082 153.699 46.7148V64H146.644V37.584H153.309L153.504 40.7334C154.92 38.3083 156.881 37.0957 159.388 37.0957C160.169 37.0957 160.901 37.2015 161.585 37.4131L161.487 44.2002ZM176.575 64.4883C172.701 64.4883 169.544 63.3001 167.103 60.9238C164.677 58.5475 163.465 55.3818 163.465 51.4268V50.7432C163.465 48.0902 163.978 45.722 165.003 43.6387C166.028 41.5391 167.477 39.9277 169.349 38.8047C171.237 37.6654 173.385 37.0957 175.794 37.0957C179.407 37.0957 182.247 38.235 184.314 40.5137C186.398 42.7923 187.439 46.0231 187.439 50.2061V53.0869H170.618C170.846 54.8122 171.53 56.1956 172.669 57.2373C173.825 58.279 175.281 58.7998 177.039 58.7998C179.757 58.7998 181.881 57.8151 183.411 55.8457L186.878 59.7275C185.82 61.2249 184.388 62.3968 182.581 63.2432C180.774 64.0732 178.772 64.4883 176.575 64.4883ZM175.77 42.8086C174.37 42.8086 173.23 43.2806 172.352 44.2246C171.489 45.1686 170.936 46.5195 170.691 48.2773H180.506V47.7158C180.473 46.1533 180.05 44.9489 179.236 44.1025C178.423 43.2399 177.267 42.8086 175.77 42.8086ZM214.441 54.4053L217.908 37.584H224.72L217.981 64H212.073L207.068 47.374L202.063 64H196.18L189.441 37.584H196.253L199.695 54.3809L204.529 37.584H209.632L214.441 54.4053ZM240.394 64.4883C236.52 64.4883 233.362 63.3001 230.921 60.9238C228.496 58.5475 227.283 55.3818 227.283 51.4268V50.7432C227.283 48.0902 227.796 45.722 228.821 43.6387C229.847 41.5391 231.295 39.9277 233.167 38.8047C235.055 37.6654 237.203 37.0957 239.612 37.0957C243.226 37.0957 246.066 38.235 248.133 40.5137C250.216 42.7923 251.258 46.0231 251.258 50.2061V53.0869H234.437C234.664 54.8122 235.348 56.1956 236.487 57.2373C237.643 58.279 239.1 58.7998 240.857 58.7998C243.576 58.7998 245.7 57.8151 247.229 55.8457L250.696 59.7275C249.638 61.2249 248.206 62.3968 246.399 63.2432C244.593 64.0732 242.591 64.4883 240.394 64.4883ZM239.588 42.8086C238.188 42.8086 237.049 43.2806 236.17 44.2246C235.307 45.1686 234.754 46.5195 234.51 48.2773H244.324V47.7158C244.292 46.1533 243.868 44.9489 243.055 44.1025C242.241 43.2399 241.085 42.8086 239.588 42.8086ZM270.13 44.2002C269.17 44.07 268.323 44.0049 267.591 44.0049C264.922 44.0049 263.172 44.9082 262.342 46.7148V64H255.286V37.584H261.951L262.146 40.7334C263.562 38.3083 265.524 37.0957 268.03 37.0957C268.812 37.0957 269.544 37.2015 270.228 37.4131L270.13 44.2002ZM283.851 54.0146L288.733 37.584H296.302L285.682 68.1016L285.096 69.4932C283.517 72.9437 280.913 74.6689 277.283 74.6689C276.258 74.6689 275.216 74.5143 274.158 74.2051V68.8584L275.232 68.8828C276.567 68.8828 277.56 68.6794 278.211 68.2725C278.878 67.8656 279.399 67.1901 279.773 66.2461L280.604 64.0732L271.351 37.584H278.943L283.851 54.0146Z" fill="white" fill-opacity="0.9"/>
<path fill-rule="evenodd" clip-rule="evenodd" d="M30.039 16.461L38.2695 24.645L46.5 16.461L54.7305 24.645L62.961 16.461L46.5 0L30.039 16.461ZM16.461 30.039L0 46.5L16.461 62.961L24.645 54.7305L16.461 46.5L24.645 38.2695L16.461 30.039ZM46.5 76.539L38.2695 68.355L30.039 76.539L46.5 93L62.961 76.539L54.7305 68.355L46.5 76.539ZM68.355 38.2695L76.539 30.039L93 46.5L76.539 62.961L68.355 54.7305L76.539 46.5L68.355 38.2695ZM32.55 46.5C32.55 38.7954 38.7954 32.55 46.5 32.55C54.2046 32.55 60.45 38.7954 60.45 46.5C60.45 54.2046 54.2046 60.45 46.5 60.45C38.7954 60.45 32.55 54.2046 32.55 46.5Z" fill="white" fill-opacity="0.9"/>
</svg>
